<svg xmlns="http://www.w3.org/2000/svg" width="31.871" height="22.617" viewBox="0 0 31.871 22.617"><defs><style>.a{fill:#fff;}</style></defs><g transform="translate(3.687 -1.943)"><g transform="translate(-3.688 1.943)"><path class="a" d="M2421.548-487.932a5.637,5.637,0,0,0-.8-1.144l-.162-.2c-1.689-2.076-3.468-4.146-5.437-6.327-1.64-1.817-3.565-3.916-5.664-5.843a4.665,4.665,0,0,0-3.177-1.306h-.045a4.637,4.637,0,0,0-3.189,1.372c-1.183,1.138-2.336,2.34-3.45,3.5l-.485.506c-.39.406-.779.824-1.156,1.228l-.331.355a.835.835,0,0,0-.061,1.2.963.963,0,0,0,.129.109,2.587,2.587,0,0,0-2.884.9c-1.351,1.469-2.475,2.713-3.571,4.008l-.15.177a6.374,6.374,0,0,0-1.1,1.585,1.477,1.477,0,0,0,.686,1.974,3.831,3.831,0,0,0,.874.35c1.974.517,3.982.883,5.87,1.214a54.636,54.636,0,0,0,8.007.819c.259.007.521.01.789.01a44.78,44.78,0,0,0,4.5-.255,63.485,63.485,0,0,0,7.51-1.233c.143-.032.287-.062.431-.092a7.623,7.623,0,0,0,2.133-.675A1.6,1.6,0,0,0,2421.548-487.932Zm-22.734-6.738c.094-.093.186-.189.274-.282l.034-.036q.561-.588,1.117-1.179c1.325-1.4,2.694-2.853,4.125-4.192a2.827,2.827,0,0,1,3.705-.172c.389.307.759.665,1.116,1.01l.008.007c1.845,1.783,3.61,3.714,5.243,5.535,1.765,1.969,3.441,3.928,4.981,5.822a10.779,10.779,0,0,1,.644.87.777.777,0,0,1,.071.127.893.893,0,0,1-.142.091,2.543,2.543,0,0,1-.6.211c-1.462.367-3.023.69-4.914,1.017a52.07,52.07,0,0,1-8.318.772h0c-1.165.015-2.343-.063-3.341-.141-1.553-.122-3.165-.324-4.787-.6-1.909-.326-3.955-.7-5.975-1.218a2.166,2.166,0,0,1-.542-.184,2.176,2.176,0,0,1,.32-.481c1.128-1.448,2.395-2.825,3.62-4.156q.4-.435.8-.87a.936.936,0,0,1,1.175-.142c.206.124.412.265.611.4.16.109.326.222.495.329a.884.884,0,0,0,.666.135.794.794,0,0,0,.495-.36.809.809,0,0,0-.268-1.114c-.253-.181-.515-.357-.767-.526l-.032-.022a4.256,4.256,0,0,0-.581-.33A.931.931,0,0,0,2398.814-494.67Z" transform="translate(-2389.878 502.749)"/><path class="a" d="M2732.155-192.844a2.6,2.6,0,0,0-2.732.006,1.2,1.2,0,0,0-.656.987,1.232,1.232,0,0,0,.617,1.053,2.441,2.441,0,0,0,1.416.365l.111,0a2.208,2.208,0,0,0,1.214-.315,1.318,1.318,0,0,0,.719-1.092A1.235,1.235,0,0,0,2732.155-192.844Zm-.366,1.038c0,.042-.037.088-.112.139a1.62,1.62,0,0,1-.728.22l-.134.019a1.892,1.892,0,0,1-.885-.236c-.081-.052-.12-.1-.121-.142s.04-.093.124-.149a1.635,1.635,0,0,1,.867-.214,1.6,1.6,0,0,1,.883.225C2731.755-191.894,2731.79-191.849,2731.789-191.807Z" transform="translate(-2707.735 212.438)"/><path class="a" d="M2856.529-154.85a1.413,1.413,0,0,0-1.4.017.409.409,0,0,0-.189.332.412.412,0,0,0,.214.322,1.44,1.44,0,0,0,.684.188h0a1.344,1.344,0,0,0,.682-.185.419.419,0,0,0,.215-.334A.431.431,0,0,0,2856.529-154.85Z" transform="translate(-2826.08 176.607)"/><path class="a" d="M2842.621-212.29a.4.4,0,0,0,.188-.311.388.388,0,0,0-.173-.306,1.125,1.125,0,0,0-.729-.213h-.009a1.305,1.305,0,0,0-.659.173.425.425,0,0,0-.229.332.419.419,0,0,0,.211.338,1.222,1.222,0,0,0,.687.183A1.239,1.239,0,0,0,2842.621-212.29Z" transform="translate(-2813.012 231.095)"/><path class="a" d="M2810.806-181.083a1.078,1.078,0,0,0-.66-.171h0a1.252,1.252,0,0,0-.713.168.426.426,0,0,0-.209.33.41.41,0,0,0,.2.326,1.261,1.261,0,0,0,.7.179,1.256,1.256,0,0,0,.7-.179.408.408,0,0,0,.2-.328A.416.416,0,0,0,2810.806-181.083Z" transform="translate(-2783.194 201.208)"/><path class="a" d="M2661.57-178.284a1.444,1.444,0,0,0-1.372,0,.413.413,0,0,0-.2.33.409.409,0,0,0,.2.325,1.1,1.1,0,0,0,.683.178l.077,0a1.077,1.077,0,0,0,.609-.169.412.412,0,0,0,.22-.328A.428.428,0,0,0,2661.57-178.284Z" transform="translate(-2643.232 198.583)"/><path class="a" d="M2710.713-397.17h.024a.589.589,0,0,0,.41-.156.561.561,0,0,0,.171-.4.587.587,0,0,0-.171-.415.586.586,0,0,0-.413-.179h0a.607.607,0,0,0-.576.569A.58.58,0,0,0,2710.713-397.17Z" transform="translate(-2690.28 404.801)"/><path class="a" d="M2736.675-298.866h0a.582.582,0,0,0,.419-.173.567.567,0,0,0,.162-.41.554.554,0,0,0-.576-.549h0a.564.564,0,0,0-.579.545.56.56,0,0,0,.156.411A.58.58,0,0,0,2736.675-298.866Z" transform="translate(-2714.61 312.582)"/><path class="a" d="M2446.27-281.006h-.011a.586.586,0,0,0-.573.565.58.58,0,0,0,.183.413.576.576,0,0,0,.4.172h.014a.578.578,0,0,0,.407-.188.588.588,0,0,0,.159-.421A.555.555,0,0,0,2446.27-281.006Z" transform="translate(-2442.222 294.768)"/><path class="a" d="M2771.7-279.868h.008a.568.568,0,0,0,.4-.18.6.6,0,0,0,.165-.426.554.554,0,0,0-.577-.546h0a.589.589,0,0,0-.578.56.59.59,0,0,0,.185.415A.58.58,0,0,0,2771.7-279.868Z" transform="translate(-2747.456 294.781)"/><path class="a" d="M2485.3-281.007h-.013a.591.591,0,0,0-.571.566.58.58,0,0,0,.178.4.6.6,0,0,0,.413.176h.007a.555.555,0,0,0,.4-.176.587.587,0,0,0,.161-.431A.552.552,0,0,0,2485.3-281.007Z" transform="translate(-2478.826 294.769)"/><path class="a" d="M2736.668-353.739h.006a.575.575,0,0,0,.579-.547.569.569,0,0,0-.156-.413.578.578,0,0,0-.416-.174h-.006a.559.559,0,0,0-.58.542.557.557,0,0,0,.154.41A.579.579,0,0,0,2736.668-353.739Z" transform="translate(-2714.608 364.051)"/><path class="a" d="M2477-313.527a.583.583,0,0,0,.551-.584.6.6,0,0,0-.194-.417.564.564,0,0,0-.406-.156.589.589,0,0,0-.542.593.576.576,0,0,0,.176.417.555.555,0,0,0,.385.147Z" transform="translate(-2471.042 326.356)"/><path class="a" d="M2806.4-298.871h.005a.586.586,0,0,0,.416-.176.557.557,0,0,0,.162-.407.585.585,0,0,0-.581-.55h0a.585.585,0,0,0-.423.17.562.562,0,0,0-.152.409A.566.566,0,0,0,2806.4-298.871Z" transform="translate(-2780.014 312.587)"/><path class="a" d="M2771.713-321.849h0a.557.557,0,0,0,.57-.549.563.563,0,0,0-.154-.412.578.578,0,0,0-.418-.169h0a.588.588,0,0,0-.584.547.549.549,0,0,0,.161.394A.6.6,0,0,0,2771.713-321.849Z" transform="translate(-2747.466 334.136)"/><path class="a" d="M2632.668-279.869h.022a.609.609,0,0,0,.564-.579.548.548,0,0,0-.166-.394.6.6,0,0,0-.431-.173.55.55,0,0,0-.551.568.6.6,0,0,0,.185.425A.544.544,0,0,0,2632.668-279.869Z" transform="translate(-2617.074 294.778)"/><path class="a" d="M2702.253-279.868l.041,0a.551.551,0,0,0,.364-.14.568.568,0,0,0,.195-.392.546.546,0,0,0-.51-.611.582.582,0,0,0-.435.138.562.562,0,0,0-.187.4A.582.582,0,0,0,2702.253-279.868Z" transform="translate(-2682.366 294.773)"/></g></g></svg>