<svg xmlns="http://www.w3.org/2000/svg" width="40.22" height="40.214" viewBox="0 0 40.22 40.214"><defs><style>.a{fill:#fff;}</style></defs><path class="a" d="M2530.47,65.242c-.117-.134-.267-.059-.366-.01a.744.744,0,0,1-.078.036l-.749.268c-1.908.682-3.881,1.388-5.817,2.1-.1.038-.192.068-.267.093-.463.156-.481.195-.318.687.027.081.058.176.093.29a.474.474,0,0,0,.217.314.481.481,0,0,0,.386-.019c.971-.358,1.961-.713,2.92-1.057l1.044-.375.1-.037a26.591,26.591,0,0,1-7.817,5.454c.162-.553.347-1.073.567-1.683l1.161-3.217q.962-2.664,1.922-5.329c.343-.949.7-1.957,1.1-3.08.005-.014.012-.03.019-.045a.205.205,0,0,0-.283-.295.564.564,0,0,1-.055.023,6.855,6.855,0,0,0-2.117,1.151,18.18,18.18,0,0,0-3.145,3.338,38.23,38.23,0,0,0-3.861,6.461.985.985,0,0,1-.631.555c-.642.216-1.287.451-1.911.68l-.69.251c-.107.039-.2.071-.281.1-.3.1-.434.15-.486.259s0,.213.074.419c.041.109.092.244.147.421a.369.369,0,0,0,.177.241.375.375,0,0,0,.3-.013c.331-.127.671-.248,1-.365l.057-.02c.3-.108.606-.214.932-.328l.312-.109c-.15.418-.326.794-.5,1.159-.074.159-.152.323-.224.485a.148.148,0,0,1-.164.088,4.607,4.607,0,0,0-2.308.5l-.042.017a.3.3,0,0,1-.221.027c-.053-.023-.1-.089-.142-.205-.137-.369-.29-.739-.438-1.1q-.087-.211-.173-.422c-.29-.712-.52-.811-1.229-.524l-4.759,1.921q-3.063,1.237-6.126,2.471a2.517,2.517,0,0,0-.982.727,2.346,2.346,0,0,0,.058,3.234,2.529,2.529,0,0,0,2.868.532c1.633-.651,3.291-1.32,4.894-1.967l2.186-.882q1.888-.76,3.777-1.518c.325-.13.684-.347.57-.866-.018-.082,0-.135.132-.182s.281-.1.417-.154a8.308,8.308,0,0,1,.88-.3,1.528,1.528,0,0,1,1.733,1.759c-.081.3-.193.6-.3.89-.046.125-.092.249-.137.374-.052.148-.1.168-.175.153-.53-.1-.743.245-.883.6-.257.655-.525,1.318-.784,1.959l-.23.57-1.026,2.54c-.771,1.906-1.568,3.877-2.344,5.819a2.681,2.681,0,0,0,.032,2.045,2.355,2.355,0,0,0,1.291,1.283,2.185,2.185,0,0,0,.8.148,2.7,2.7,0,0,0,2.447-1.681c.568-1.431,1.153-2.884,1.719-4.288l.609-1.512q1.024-2.546,2.05-5.09a.7.7,0,0,0-.018-.8c-.163-.172-.129-.308-.054-.511l.019-.052c.525-1.424,1.069-2.9,1.583-4.354a1.007,1.007,0,0,1,.556-.632,34.191,34.191,0,0,0,7.9-5.035,9.558,9.558,0,0,0,3.012-3.984.755.755,0,0,1,.041-.087C2530.5,65.472,2530.563,65.347,2530.47,65.242Zm-15.12,14.024c-.16-.063-.232-.093-.243-.137a1.184,1.184,0,0,1,.123-.426c.023-.061.048-.129.076-.2s.063-.164.095-.246c.064-.165.131-.335.182-.508a2.607,2.607,0,0,0-.819-2.869c-.138-.125-.192-.182-.121-.341a61.053,61.053,0,0,1,3.828-7.616,22.682,22.682,0,0,1,3.721-4.75c.021-.02.041-.041.06-.063s.042-.046.065-.067l-.453,1.26c-.372,1.036-.742,2.065-1.112,3.093l-.405,1.124q-1.4,3.9-2.809,7.8-.265.734-.533,1.467c-.294.806-.6,1.64-.889,2.463-.045.128-.093.2-.149.223a.341.341,0,0,1-.257-.048C2515.564,79.35,2515.446,79.3,2515.351,79.266Zm-5.792,11.893a1.706,1.706,0,0,1,.174-.683l1.064-2.64c.978-2.424,1.988-4.93,2.976-7.4.06-.15.116-.229.183-.255a.176.176,0,0,1,.066-.012.544.544,0,0,1,.216.062c.531.246,1.066.45,1.518.618.105.039.165.081.188.132a.324.324,0,0,1-.033.239q-1.174,2.9-2.344,5.8-.881,2.184-1.764,4.367a2.385,2.385,0,0,1-.249.464,1.113,1.113,0,0,1-1.994-.689v0Zm.057-15.314c-.028.07-.111.129-.268.192-2.082.828-4.2,1.68-6.239,2.5l-1.546.624-.949.384q-.67.272-1.341.542l-.033.014a1.289,1.289,0,0,1-.593.142h-.008a1.054,1.054,0,0,1-1.1-.885,1,1,0,0,1,.449-1.144,2.121,2.121,0,0,1,.372-.2q2.746-1.107,5.493-2.212l3.2-1.288c.507-.2,1.031-.415,1.546-.636a.432.432,0,0,1,.162-.043.141.141,0,0,1,.056.01.29.29,0,0,1,.126.177c.172.459.38,1,.621,1.517A.4.4,0,0,1,2509.616,75.845Z" transform="translate(-2432.491 -534.499) rotate(11)"/></svg>