<svg xmlns="http://www.w3.org/2000/svg" width="47.193" height="29.475" viewBox="0 0 47.193 29.475"><defs><style>.a{fill:#fff;}</style></defs><g transform="translate(-1736.625 -12.727)"><path class="a" d="M1881.82,29.21c-.973-1.113-1.857-2.123-2.739-3.134a6.589,6.589,0,0,1-.482-.575.766.766,0,0,1,.061-1.029c.094-.1.2-.2.3-.3l9.425-9.424c.742-.742.954-.75,1.767-.067.607.51.6.505,1.176-.05.348-.337.694-.679,1.069-.984a3.754,3.754,0,0,1,5.047.116q1.7,1.481,3.427,2.921a3.961,3.961,0,0,1,.421,5.587c-.25.28-.487.572-.75.84-.277.283-.281.5.036.773.985.844,1.952,1.711,2.924,2.57.164.145.334.285.484.444A.757.757,0,0,1,1904,27.99c-.082.095-.174.18-.262.269l-11.25,11.249c-.669.669-.954.677-1.575-.019Q1888.694,37,1886.5,34.5a.97.97,0,0,0-.808-.365q-4.81.015-9.62,0a.888.888,0,0,0-.661.285c-.72.695-1.461,1.369-2.177,2.069a1.445,1.445,0,0,1-1.166.479c-.514-.033-1.032-.008-1.548-.01-.728,0-.977-.243-.983-.991-.01-1.361-.008-2.722-.008-4.083,0-1.47,0-2.941.007-4.411,0-.841.261-.991,1.1-1.1a3.592,3.592,0,0,1,3.6,1.451c.157.208.431.329.584.538a2.33,2.33,0,0,0,2.221.867C1878.585,29.166,1880.134,29.21,1881.82,29.21Zm-1.85,1.534c-.938,0-1.877-.006-2.815,0-1.265.011-1.1-.147-1.11,1.088-.008.769,0,.771.771.772q4.668,0,9.336,0a1.445,1.445,0,0,1,1.183.538c1.338,1.55,2.706,3.074,4.048,4.621.27.312.429.315.728.014q3.779-3.818,7.59-7.6c.8-.8,1.588-1.6,2.392-2.385.2-.2.271-.321,0-.546-.789-.665-1.545-1.367-2.319-2.049q-5.048-4.45-10.093-8.9c-.271-.24-.427-.251-.687.011q-4.2,4.226-8.427,8.427c-.266.264-.294.433-.031.726,1.139,1.267,2.252,2.557,3.375,3.839a.866.866,0,0,1,.253,1.019.893.893,0,0,1-.914.44C1882.159,30.74,1881.065,30.744,1879.97,30.744Zm20.836-11.013a1.968,1.968,0,0,0-.667-1.624c-1.339-1.223-2.71-2.41-4.134-3.532a1.786,1.786,0,0,0-2.264-.056,15.839,15.839,0,0,0-1.572,1.4c-.283.239-.2.373.034.58,1.051.911,2.088,1.838,3.131,2.759,1.1.973,2.208,1.939,3.3,2.924.3.272.51.272.764-.051.28-.355.605-.675.9-1.018A1.915,1.915,0,0,0,1900.806,19.731Zm-29.732,11.936h0c0,1.124,0,2.249,0,3.373,0,.143-.064.385.144.388.383,0,.781.166,1.14-.2.6-.616,1.248-1.179,1.884-1.756a.757.757,0,0,0,.268-.616c-.011-.8-.006-1.593-.009-2.389,0-.14.018-.294-.1-.4-.742-.692-1.452-1.424-2.245-2.051-.511-.4-1.084-.044-1.086.608C1871.071,29.637,1871.074,30.652,1871.074,31.667Z" transform="translate(-120.407)"/><path class="a" d="M1736.63,180.268a13.473,13.473,0,0,1,.366-3.817,10.627,10.627,0,0,1,8.519-7.4,7.771,7.771,0,0,1,1.306-.084.763.763,0,0,1,.818.729.806.806,0,0,1-.787.782,13.954,13.954,0,0,0-1.953.206,8.62,8.62,0,0,0-6.738,7.858c-.093,1.451.009,2.9-.065,4.348-.028.556-.337.871-.787.847-.42-.023-.675-.354-.679-.9C1736.627,182.1,1736.63,181.368,1736.63,180.268Z" transform="translate(0 -141.542)"/><path class="a" d="M1774.958,216.348a14.081,14.081,0,0,1,.154-3.131,6.744,6.744,0,0,1,6.284-5.322c.579,0,.923.249.953.684s-.306.807-.887.827a5.038,5.038,0,0,0-5,5.331c0,1.126,0,2.253,0,3.379,0,.547-.258.862-.69.894-.458.034-.776-.259-.808-.833C1774.931,217.569,1774.958,216.958,1774.958,216.348Z" transform="translate(-34.712 -176.811)"/><path class="a" d="M1815.851,251.637c0,.594.01,1.189,0,1.783a.753.753,0,0,1-.73.81.726.726,0,0,1-.73-.8c-.01-1.342-.032-2.685.015-4.025a3.019,3.019,0,0,1,2.892-2.631.759.759,0,0,1,.791.646.744.744,0,0,1-.677.81c-1.093.131-1.539.471-1.556,1.905C1815.846,250.637,1815.851,251.137,1815.851,251.637Z" transform="translate(-70.436 -212.032)"/><path class="a" d="M2076.193,81.238a1.071,1.071,0,0,1,.673.329q2.182,1.914,4.366,3.825a.789.789,0,0,1,.159,1.156.765.765,0,0,1-1.162-.005c-1.1-.952-2.182-1.914-3.268-2.876-.432-.383-.865-.765-1.28-1.165a.63.63,0,0,1-.157-.771A.8.8,0,0,1,2076.193,81.238Z" transform="translate(-306.958 -62.067)"/></g></svg>