<svg xmlns="http://www.w3.org/2000/svg" width="23.953" height="19.062" viewBox="0 0 23.953 19.062"><defs></defs><path class="a" d="M74.256,120.939l-8.543,7.043a.2.2,0,0,1-.007.044.2.2,0,0,0-.007.044V135.2a.965.965,0,0,0,.951.951h5.7v-5.705h3.8v5.706h5.7a.966.966,0,0,0,.951-.951V128.07a.209.209,0,0,0-.015-.089Z" transform="translate(-62.279 -117.091)"/><path class="a" d="M23.787,56.28l-3.254-2.7V47.514a.458.458,0,0,0-.475-.475H17.206a.457.457,0,0,0-.475.475v2.9L13.105,47.38a1.843,1.843,0,0,0-2.258,0L.165,56.28A.432.432,0,0,0,0,56.6a.481.481,0,0,0,.1.349l.921,1.1a.507.507,0,0,0,.312.164.552.552,0,0,0,.357-.1l10.281-8.573,10.281,8.573a.458.458,0,0,0,.312.1h.045a.507.507,0,0,0,.312-.163l.921-1.1a.481.481,0,0,0,.1-.349A.433.433,0,0,0,23.787,56.28Z" transform="translate(0.001 -46.994)"/></svg>