<svg xmlns="http://www.w3.org/2000/svg" width="17.988" height="21.419" viewBox="0 0 17.988 21.419"><defs></defs><g transform="translate(1.473)"><path class="a" d="M17.925,7.126c-.053-.064-.1-.124-.15-.181L14.991,3.7c-.256-.3-.267-.567-.033-.761s.485-.141.748.163c.379.441.757.885,1.136,1.326.618.719,1.238,1.438,1.88,2.188C19.793,3.25,16.365-.41,12.588.038c-.289,1.933-.2,3.779,1.182,5.352A5.133,5.133,0,0,0,17.925,7.126Z" transform="translate(-11.18 -0.001)"/><path class="a" d="M49.977,11.617a.3.3,0,0,0-.212-.192,6.753,6.753,0,0,0-.871-.013,3.747,3.747,0,0,0-3.508,2.464,1.493,1.493,0,0,0-.084.335c-.06.556-.113,1.114-.172,1.727.24.038.494.1.752.117A3.923,3.923,0,0,0,49.977,11.617Z" transform="translate(-36.647 -8.888)"/><path class="a" d="M15.333,5.332A1.465,1.465,0,0,1,15.417,5a3.744,3.744,0,0,1,3.508-2.464,7.18,7.18,0,0,1,.871.013.3.3,0,0,1,.212.192,3.919,3.919,0,0,1-4.094,4.439,7.242,7.242,0,0,1-.752-.117C15.221,6.446,15.272,5.887,15.333,5.332ZM9.267,5.4A6.185,6.185,0,0,1,8.084.048C11.863-.4,15.289,3.26,14.217,6.624c-.642-.748-1.262-1.467-1.88-2.188-.379-.441-.757-.882-1.136-1.326-.26-.3-.512-.36-.748-.163s-.223.463.033.761q1.39,1.625,2.784,3.247c.049.057.1.117.15.181A5.153,5.153,0,0,1,9.267,5.4Zm10.7,16.027H8.338a.463.463,0,0,1-.459-.4c-.4-2.837-.8-5.665-1.2-8.511a.464.464,0,0,1,.459-.529H21.164a.463.463,0,0,1,.459.527c-.4,2.844-.8,5.672-1.2,8.513A.464.464,0,0,1,19.968,21.427Z" transform="translate(-6.679 -0.008)"/></g><path class="a" d="M17.585,41.01H.4a.4.4,0,0,1-.4-.4V38.584a.4.4,0,0,1,.4-.4H17.585a.4.4,0,0,1,.4.4v2.025A.4.4,0,0,1,17.585,41.01Z" transform="translate(0 -29.757)"/></svg>