<svg xmlns="http://www.w3.org/2000/svg" width="42.622" height="55.913" viewBox="0 0 42.622 55.913"><defs><style>.a{fill:#607c1c;}.b{fill:#839e2e;}.c{fill:#b25b36;}.d{fill:#c16544;}.e{fill:#604747;}.f{fill:#7a6262;}</style></defs><g transform="translate(2.28)"><path class="a" d="M35.2,14.73h.993l.5,15.112-.5,7.66H35.2Z" transform="translate(-17.161 -6.225)"/><rect class="b" width="0.993" height="22.772" transform="translate(19.032 8.505)"/><path class="a" d="M22.484,10.077l.5-1.576S18.005-1.889,9.785.3s-6.7,11.14-1.934,9.969,6.984-4.254,9.715-3.619S22.484,10.077,22.484,10.077Z" transform="translate(-3.949 0.004)"/><path class="b" d="M37.416,10.077,36.92,8.5S41.9-1.889,50.115.3s6.7,11.14,1.934,9.969-6.984-4.254-9.715-3.619S37.416,10.077,37.416,10.077Z" transform="translate(-17.888 0.004)"/></g><g transform="translate(0 23.825)"><path class="c" d="M7.02,53.408l3.071,24.786H24.279l5.8-14.1-5.8-11.383Z" transform="translate(-2.968 -46.107)"/><path class="d" d="M54.179,53.408,51.108,78.195H36.92V52.71Z" transform="translate(-15.609 -46.107)"/><path class="e" d="M21.311,51.175H2.182A2.18,2.18,0,0,1,0,48.993V43.452A2.18,2.18,0,0,1,2.182,41.27H21.311l6.315,6.777Z" transform="translate(0 -41.27)"/><path class="f" d="M36.92,51.175H56.049a2.18,2.18,0,0,0,2.182-2.182V43.452a2.18,2.18,0,0,0-2.182-2.182H36.92Z" transform="translate(-15.609 -41.27)"/></g></svg>