<svg xmlns="http://www.w3.org/2000/svg" width="71.306" height="93.541" viewBox="0 0 71.306 93.541"><defs><style>.a{fill:#607c1c;}.b{fill:#839e2e;}.c{fill:#b25b36;}.d{fill:#c16544;}.e{fill:#604747;}.f{fill:#7a6262;}</style></defs><g transform="translate(3.814)"><path class="a" d="M35.2,14.73h1.661l.83,25.282-.83,12.815H35.2Z" transform="translate(-5.021 -0.501)"/><rect class="b" width="1.661" height="38.096" transform="translate(31.84 14.229)"/><path class="a" d="M34.958,16.861l.83-2.636S27.464-3.158,13.713.5,2.511,19.14,10.478,17.179s11.685-7.117,16.253-6.055S34.958,16.861,34.958,16.861Z" transform="translate(-3.949 0.004)"/><path class="b" d="M37.75,16.861l-.83-2.636S45.244-3.158,59,.5,70.2,19.14,62.231,17.179s-11.685-7.117-16.253-6.055S37.75,16.861,37.75,16.861Z" transform="translate(-5.08 0.004)"/></g><g transform="translate(0 39.858)"><path class="c" d="M7.02,53.878l5.137,41.467H35.894l9.7-23.592-9.7-19.043Z" transform="translate(-0.241 -41.663)"/><path class="d" d="M65.794,53.878,60.657,95.345H36.92V52.71Z" transform="translate(-1.267 -41.663)"/><path class="e" d="M35.653,57.841h-32A3.647,3.647,0,0,1,0,54.191V44.92a3.647,3.647,0,0,1,3.65-3.65h32L46.218,52.607Z" transform="translate(0 -41.27)"/><path class="f" d="M36.92,57.841h32a3.647,3.647,0,0,0,3.65-3.65V44.92a3.647,3.647,0,0,0-3.65-3.65h-32Z" transform="translate(-1.267 -41.27)"/></g></svg>