<svg xmlns="http://www.w3.org/2000/svg" width="64.177" height="106.931" viewBox="0 0 64.177 106.931"><defs><style>.a{fill:#607c1c;}.b{fill:#839e2e;}.c{fill:#e2dd2b;}.d{fill:#c6c61a;}.e{fill:#b25b36;}.f{fill:#c16544;}.g{fill:#604747;}.h{fill:#7a6262;}</style></defs><g transform="translate(-267.534 -108.174)"><g transform="translate(288.864 108.174)"><path class="a" d="M305.479,170.175h1.489l.6-27.386-.6-18.237h-1.489Z" transform="translate(-296.211 -111.345)"/><rect class="b" width="1.489" height="45.624" transform="translate(10.757 13.207)"/><g transform="translate(0)"><path class="c" d="M316.988,120.181h0a1.43,1.43,0,0,1,0-2.5h0A1.429,1.429,0,0,0,316.27,115h0a1.429,1.429,0,0,1-1.249-2.164h0a1.43,1.43,0,0,0-1.961-1.961h0a1.429,1.429,0,0,1-2.164-1.249h0a1.429,1.429,0,0,0-2.679-.718h0a1.414,1.414,0,0,1-1.249.735l-1.489,12.934,1.489,5.635a1.413,1.413,0,0,1,1.249.735h0a1.429,1.429,0,0,0,2.679-.718h0a1.429,1.429,0,0,1,2.164-1.249h0a1.43,1.43,0,0,0,1.961-1.961h0a1.429,1.429,0,0,1,1.249-2.164h0A1.429,1.429,0,0,0,316.988,120.181Z" transform="translate(-296.211 -108.174)"/><path class="d" d="M294.723,120.181h0a1.429,1.429,0,0,0,0-2.5h0a1.429,1.429,0,0,1,.718-2.678h0a1.43,1.43,0,0,0,1.25-2.164h0a1.429,1.429,0,0,1,1.96-1.961h0a1.429,1.429,0,0,0,2.164-1.249h0a1.429,1.429,0,0,1,2.678-.718h0a1.416,1.416,0,0,0,1.25.735v18.569a1.415,1.415,0,0,0-1.25.735h0a1.429,1.429,0,0,1-2.678-.718h0a1.429,1.429,0,0,0-2.164-1.249h0a1.429,1.429,0,0,1-1.96-1.961h0a1.429,1.429,0,0,0-1.25-2.164h0A1.43,1.43,0,0,1,294.723,120.181Z" transform="translate(-293.985 -108.174)"/></g></g><g transform="translate(267.534 117.239)"><path class="a" d="M283.717,119.415a27.852,27.852,0,1,0,23.352,50.574Z" transform="translate(-267.534 -119.415)"/><path class="b" d="M321.446,119.415a27.852,27.852,0,0,1-23.353,50.574Z" transform="translate(-273.451 -119.415)"/></g><g transform="translate(272.383 164.281)"><path class="e" d="M273.633,201.393l3.621,29.239h23.533l9.6-23.388-9.6-18.873-16.673.671A11.008,11.008,0,0,0,273.633,201.393Z" transform="translate(-273.548 -179.809)"/><path class="f" d="M334.478,201.393l-3.621,29.239H307.326V188.371l16.672.671A11.007,11.007,0,0,1,334.478,201.393Z" transform="translate(-280.088 -179.809)"/><path class="g" d="M301.307,189.4H282.063a5.824,5.824,0,0,1-5.824-5.824h0a5.824,5.824,0,0,1,5.824-5.824h19.244l7.425,7.97Z" transform="translate(-274.069 -177.753)"/><path class="h" d="M5.824,0H25.068a0,0,0,0,1,0,0V11.648a0,0,0,0,1,0,0H5.824A5.824,5.824,0,0,1,0,5.824v0A5.824,5.824,0,0,1,5.824,0Z" transform="translate(52.306 11.649) rotate(180)"/></g></g></svg>