<svg xmlns="http://www.w3.org/2000/svg" width="49.679" height="113.703" viewBox="0 0 49.679 113.703"><defs><style>.a{fill:#abbc46;}.b{fill:#839e2e;}.c{fill:#607c1c;}.d{fill:#b25b36;}.e{fill:#c16544;}.f{fill:#bcb5b5;}.g{fill:#ddcbc7;}</style></defs><g transform="translate(-112.778 -376.576)"><g transform="translate(136.796 387.078)"><path class="a" d="M187.792,398.818l-13.6,44.174-6.8,39.7c8.233-7.473,18.844-35.1,21.971-47.959S191.675,409.237,187.792,398.818Z" transform="translate(-165.625 -398.818)"/><path class="a" d="M185.81,398.818l-20.394,83.877c-3.883-10.419-.626-39.831,2.5-52.693S177.577,406.291,185.81,398.818Z" transform="translate(-163.643 -398.818)"/><path class="b" d="M186.956,406.1l-12.483,42.5L167.4,486.54c6.648-7.47,16.066-34.145,19.065-46.479S189.431,415.792,186.956,406.1Z" transform="translate(-165.625 -402.664)"/><path class="c" d="M186.075,406.1,166.517,486.54c-2.476-9.688,1.405-37.71,4.4-50.044S179.427,413.575,186.075,406.1Z" transform="translate(-164.744 -402.664)"/></g><g transform="translate(126.778 376.576)"><path class="a" d="M152.445,376.576l2.774,46.136L152.445,462.9c-6.234-9.207-10.019-38.556-10.019-51.792S146.21,385.783,152.445,376.576Z" transform="translate(-142.426 -376.576)"/><path class="a" d="M163.643,376.576v89.381c6.235-9.207,10.018-41.616,10.018-54.853S169.878,385.783,163.643,376.576Z" transform="translate(-153.625 -376.576)"/><path class="c" d="M155.211,384.075l2.089,44.244-2.089,38.536c-4.695-8.829-7.544-36.974-7.544-49.668S150.516,392.9,155.211,384.075Z" transform="translate(-145.192 -380.534)"/><path class="b" d="M163.643,384.075v82.78c4.695-8.829,7.544-36.974,7.544-49.668S168.338,392.9,163.643,384.075Z" transform="translate(-153.625 -380.534)"/></g><g transform="translate(112.778 395.797)"><path class="a" d="M116.272,417.281l13.6,44.175,6.8,39.7c-8.233-7.473-18.844-35.1-21.972-47.959S112.39,427.7,116.272,417.281Z" transform="translate(-112.778 -417.281)"/><path class="a" d="M120.177,417.281l20.394,83.877c3.883-10.419.626-39.831-2.5-52.693S128.411,424.754,120.177,417.281Z" transform="translate(-116.683 -417.281)"/><path class="c" d="M119.925,424.568l12.482,42.5L139.483,505c-6.648-7.47-16.066-34.145-19.065-46.48S117.45,434.256,119.925,424.568Z" transform="translate(-115.595 -421.127)"/><path class="b" d="M121.949,424.568,141.507,505c2.476-9.688-1.405-37.71-4.4-50.044S128.6,432.038,121.949,424.568Z" transform="translate(-117.619 -421.127)"/></g><g transform="translate(116.455 458.861)"><path class="d" d="M131,582.256h11.3L149.4,569.2l-8.491-18.362H124.6a27.074,27.074,0,0,0-4.041,13.648A20.334,20.334,0,0,0,131,582.256Z" transform="translate(-120.564 -550.838)"/><path class="e" d="M173.547,582.256a20.334,20.334,0,0,0,10.438-17.77,27.075,27.075,0,0,0-4.041-13.648h-16.3v31.418Z" transform="translate(-143.301 -550.838)"/><path class="f" d="M121.209,564.916h20.037l4.313-2.529-4.313-3.833H123.08A27.456,27.456,0,0,0,121.209,564.916Z" transform="translate(-120.904 -554.91)"/><path class="g" d="M183.68,564.916H163.643v-6.362h18.166A27.455,27.455,0,0,1,183.68,564.916Z" transform="translate(-143.301 -554.91)"/></g></g></svg>