<svg xmlns="http://www.w3.org/2000/svg" width="64.033" height="93.481" viewBox="0 0 64.033 93.481"><defs><style>.a{fill:#839e2e;}.b{fill:#607c1c;}.c{fill:#abbc46;}.d{fill:#b25b36;}.e{fill:#604747;}.f{fill:#c16544;}.g{fill:#7a6262;}</style></defs><g transform="translate(-245.536 -427.689)"><g transform="translate(245.536 427.689)"><path class="a" d="M310.423,427.689v68.872c15.684,0,28.4-19.775,28.4-38.793S326.107,427.689,310.423,427.689Z" transform="translate(-278.445 -427.689)"/><path class="b" d="M281.2,427.689v68.872c-15.684,0-28.4-19.775-28.4-38.793S265.513,427.689,281.2,427.689Z" transform="translate(-249.219 -427.689)"/><path class="c" d="M306.824,427.689l-3.5,41.323,3.5,27.549c9.476,0,17.157-19.775,17.157-38.793S316.3,427.689,306.824,427.689Z" transform="translate(-274.846 -427.689)"/><path class="a" d="M292.766,427.689v68.872c-9.475,0-17.157-19.775-17.157-38.793S283.291,427.689,292.766,427.689Z" transform="translate(-260.788 -427.689)"/><g transform="translate(0 6.044)"><path class="b" d="M269.192,442.483h-3.574a1.265,1.265,0,0,1-1.265-1.265h0a1.265,1.265,0,0,1,1.265-1.265h3.574Z" transform="translate(-255.08 -439.953)"/><path class="b" d="M255.285,465.3h-3.574a1.266,1.266,0,0,1-1.265-1.265h0a1.265,1.265,0,0,1,1.265-1.265h3.574Z" transform="translate(-248.026 -451.525)"/><path class="b" d="M250.375,488.115H246.8a1.265,1.265,0,0,1-1.265-1.265h0a1.265,1.265,0,0,1,1.265-1.265h3.574Z" transform="translate(-245.536 -463.097)"/><path class="b" d="M255.285,510.932h-3.574a1.265,1.265,0,0,1-1.265-1.265h0a1.265,1.265,0,0,1,1.265-1.264h3.574Z" transform="translate(-248.026 -474.669)"/><path class="b" d="M263.312,533.748h-3.574a1.265,1.265,0,0,1-1.265-1.265h0a1.265,1.265,0,0,1,1.265-1.265h3.574Z" transform="translate(-252.097 -486.241)"/><path class="b" d="M1.265,0H4.839a0,0,0,0,1,0,0V2.53a0,0,0,0,1,0,0H1.265A1.265,1.265,0,0,1,0,1.265v0A1.265,1.265,0,0,1,1.265,0Z" transform="translate(15.359 56.221)"/></g><g transform="translate(43.835 6.044)"><path class="a" d="M346.831,442.483h3.574a1.265,1.265,0,0,0,1.265-1.265h0a1.265,1.265,0,0,0-1.265-1.265h-3.574Z" transform="translate(-340.746 -439.953)"/><path class="a" d="M360.738,465.3h3.574a1.265,1.265,0,0,0,1.265-1.265h0a1.265,1.265,0,0,0-1.265-1.265h-3.574Z" transform="translate(-347.799 -451.525)"/><path class="a" d="M365.648,488.115h3.574a1.265,1.265,0,0,0,1.265-1.265h0a1.265,1.265,0,0,0-1.265-1.265h-3.574Z" transform="translate(-350.289 -463.097)"/><path class="a" d="M360.738,510.932h3.574a1.265,1.265,0,0,0,1.265-1.265h0a1.265,1.265,0,0,0-1.265-1.264h-3.574Z" transform="translate(-347.799 -474.669)"/><path class="a" d="M352.711,533.748h3.574a1.265,1.265,0,0,0,1.265-1.265h0a1.265,1.265,0,0,0-1.265-1.265h-3.574Z" transform="translate(-343.728 -486.241)"/><path class="a" d="M334.483,556.564h3.574a1.265,1.265,0,0,0,1.265-1.265h0a1.265,1.265,0,0,0-1.265-1.265h-3.574Z" transform="translate(-334.483 -497.813)"/></g><g transform="translate(10.819 6.044)"><path class="a" d="M284.325,442.483h-3.574a1.265,1.265,0,0,1-1.265-1.265h0a1.265,1.265,0,0,1,1.265-1.265h3.574Z" transform="translate(-273.574 -439.953)"/><path class="a" d="M275.538,465.3h-3.574a1.266,1.266,0,0,1-1.265-1.265h0a1.265,1.265,0,0,1,1.265-1.265h3.574Z" transform="translate(-269.118 -451.525)"/><path class="a" d="M272.329,488.115h-3.574a1.265,1.265,0,0,1-1.265-1.265h0a1.266,1.266,0,0,1,1.265-1.265h3.574Z" transform="translate(-267.49 -463.097)"/><path class="a" d="M275.538,510.932h-3.574a1.265,1.265,0,0,1-1.265-1.265h0a1.265,1.265,0,0,1,1.265-1.264h3.574Z" transform="translate(-269.118 -474.669)"/><path class="a" d="M281.54,533.748h-3.574a1.265,1.265,0,0,1-1.265-1.265h0a1.265,1.265,0,0,1,1.265-1.265h3.574Z" transform="translate(-272.162 -486.241)"/><path class="a" d="M292.946,556.564h-3.574a1.265,1.265,0,0,1-1.265-1.265h0a1.265,1.265,0,0,1,1.265-1.265h3.574Z" transform="translate(-277.946 -497.813)"/></g><g transform="translate(38.065 6.044)"><path class="c" d="M331.4,442.483h3.574a1.265,1.265,0,0,0,1.265-1.265h0a1.265,1.265,0,0,0-1.265-1.265H331.4Z" transform="translate(-327.147 -439.953)"/><path class="c" d="M340.182,465.3h3.574a1.265,1.265,0,0,0,1.265-1.265h0a1.265,1.265,0,0,0-1.265-1.265h-3.574Z" transform="translate(-331.604 -451.525)"/><path class="c" d="M343.391,488.115h3.574a1.265,1.265,0,0,0,1.265-1.265h0a1.265,1.265,0,0,0-1.265-1.265h-3.574Z" transform="translate(-333.231 -463.097)"/><path class="c" d="M340.182,510.932h3.574a1.265,1.265,0,0,0,1.265-1.265h0a1.265,1.265,0,0,0-1.265-1.264h-3.574Z" transform="translate(-331.604 -474.669)"/><path class="c" d="M334.181,533.748h3.574a1.265,1.265,0,0,0,1.265-1.265h0a1.265,1.265,0,0,0-1.265-1.265h-3.574Z" transform="translate(-328.56 -486.241)"/><path class="c" d="M1.265,0H4.839a0,0,0,0,1,0,0V2.53a0,0,0,0,1,0,0H1.265A1.265,1.265,0,0,1,0,1.265v0A1.265,1.265,0,0,1,1.265,0Z" transform="translate(4.839 58.751) rotate(180)"/></g></g><g transform="translate(251.178 489.954)"><path class="d" d="M264.93,571.911l5.329,22.405h17.294l4.874-10.612-4.874-9.727Z" transform="translate(-261.014 -563.101)"/><path class="d" d="M283.523,559.472l-12.29,1.849-11.964-1.849a2.284,2.284,0,0,1-2.284-2.284v-.87a2.284,2.284,0,0,1,2.284-2.284h24.255l4.452,2.683Z" transform="translate(-256.984 -554.034)"/><path class="e" d="M283.523,570.507H259.7a2.719,2.719,0,0,1-2.719-2.719h0a2.719,2.719,0,0,1,2.719-2.719h23.819l4.452,2.234Z" transform="translate(-256.984 -559.631)"/><path class="f" d="M333.458,571.911l-5.329,22.405H310.835V573.977Z" transform="translate(-284.296 -563.101)"/><path class="f" d="M310.835,559.472l12.29,1.849,11.964-1.849a2.284,2.284,0,0,0,2.284-2.284v-.87a2.284,2.284,0,0,0-2.284-2.284H310.835Z" transform="translate(-284.296 -554.034)"/><path class="g" d="M310.835,570.507h23.819a2.719,2.719,0,0,0,2.719-2.719h0a2.719,2.719,0,0,0-2.719-2.719H310.835Z" transform="translate(-284.296 -559.631)"/></g></g></svg>